<?xml version="1.0" encoding="UTF-8" standalone="no"?>
<svg
   id="Layer_2"
   viewBox="0 0 457.45 149.94"
   version="1.1"
   xmlns="http://www.w3.org/2000/svg"
   xmlns:svg="http://www.w3.org/2000/svg">
  <defs
     id="defs4">
    <style
       id="style2">.cls-1,.cls-2{fill:#fff;}.cls-2{font-family:UniversLTStd-Bold, 'UniversLTStd Bold';font-size:28.35px;font-weight:700;}</style>
  </defs>
  <g
     id="Layer_1-2"
     style="fill:#ffffff"
     transform="matrix(0.94789511,0,0,0.94789511,11.861279,4.2542238)">
    <path
       class="cls-1"
       d="m 15.47,68.94 c 0,3.28 -0.19,13.2 12.62,13.2 8.1,0 13.2,-3.85 13.2,-9.73 0,-6.17 -4.34,-7.23 -13.2,-9.35 C 11.52,58.92 2.46,54 2.46,41.95 c 0,-12.05 8.19,-21.59 27.56,-21.59 7.23,0 15.81,1.64 21.01,8.19 3.95,5.01 3.95,10.6 3.95,12.91 H 40.62 c -0.19,-2.41 -0.96,-10.6 -11.28,-10.6 -6.94,0 -11.47,3.76 -11.47,9.44 0,6.46 5.11,7.61 15.13,10.12 12.05,2.89 23.9,6.17 23.9,19.76 0,12.53 -10.41,22.65 -29.68,22.65 C 0.53,92.84 0.34,75.68 0.24,68.94 Z"
       id="path6"
       style="fill:#ffffff" />
    <path
       class="cls-1"
       d="M 96.04,90.53 C 91.41,91.78 87.27,92.07 84.96,92.07 70.6,92.07 70.6,83.01 70.6,78.96 v -26.7 h -9.35 v -9.44 h 9.35 v -9.54 l 14.17,-5.2 v 14.75 h 11.56 v 9.44 H 84.77 v 21.97 c 0.1,4.43 0.1,7.23 6.46,7.23 2.12,0 3.08,-0.1 4.82,-0.29 v 9.35 z"
       id="path8"
       style="fill:#ffffff" />
    <path
       class="cls-1"
       d="m 114.45,70.48 c 0,3.18 0,13.01 9.93,13.01 3.57,0 7.13,-1.35 8.48,-6.75 h 13.01 c -0.19,2.31 -0.67,6.46 -4.63,10.6 -3.57,3.76 -9.93,5.69 -17.06,5.69 -4.14,0 -12.05,-0.77 -17.15,-6.07 -4.43,-4.63 -6.26,-11.18 -6.26,-18.99 0,-7.81 1.93,-17.35 10.12,-23.03 3.76,-2.51 8.38,-4.05 13.69,-4.05 6.94,0 15.23,2.7 19.66,11.76 3.28,6.65 3.08,13.78 2.89,17.83 h -32.67 z m 18.12,-8.96 c 0,-2.22 -0.19,-10.89 -8.48,-10.89 -6.26,0 -8.87,5.2 -9.16,10.89 z"
       id="path10"
       style="fill:#ffffff" />
    <path
       class="cls-1"
       d="m 169.96,42.53 0.39,6.94 c 4.43,-7.81 12.53,-7.9 14.84,-7.9 12.62,0 20.24,9.44 20.24,24.29 0,13.78 -7.13,26.02 -21.2,26.02 -8.77,0 -12.34,-4.63 -13.59,-6.26 v 24.29 H 156.09 V 42.53 h 13.88 z m 21.01,23.9 c 0,-5.78 -1.45,-15.71 -9.83,-15.71 -4.63,0 -11.18,3.47 -11.18,16.58 0,2.89 0.1,15.23 10.6,15.23 6.75,0 10.41,-6.46 10.41,-16.09 z"
       id="path12"
       style="fill:#ffffff" />
    <path
       class="cls-1"
       d="m 244.65,91.2 c -0.48,-2.99 -0.48,-5.2 -0.48,-6.65 -5.4,7.81 -11.85,7.81 -14.55,7.81 -7.04,0 -10.22,-2.02 -12.14,-3.85 -2.89,-2.89 -4.24,-6.84 -4.24,-10.7 0,-3.86 1.35,-10.99 10.31,-15.13 5.98,-2.7 14.55,-2.7 19.27,-2.7 0,-3.18 -0.1,-4.72 -0.67,-6.46 -1.25,-3.57 -5.01,-4.05 -6.36,-4.05 -2.02,0 -4.14,0.87 -5.4,2.7 -1.06,1.64 -1.06,3.18 -1.06,4.34 h -13.97 c 0.1,-2.6 0.39,-7.81 5.49,-11.47 4.43,-3.18 10.12,-3.95 14.75,-3.95 4.05,0 12.53,0.67 17.35,6.26 3.28,3.95 3.37,9.73 3.37,11.95 l 0.1,19.56 c 0,4.14 0.29,8.29 1.16,12.34 H 244.67 Z M 227.11,76.17 c 0,3.28 2.22,6.94 6.94,6.94 2.6,0 4.72,-1.25 6.07,-2.79 2.51,-3.08 2.7,-6.84 2.7,-12.05 -9.16,-0.77 -15.71,2.12 -15.71,7.9 z"
       id="path14"
       style="fill:#ffffff" />
    <path
       class="cls-1"
       d="m 269.23,51.21 c 0,-0.19 0,-5.49 -0.29,-8.87 h 13.69 l 0.39,7.33 c 1.35,-2.22 5.2,-8.48 15.81,-8.48 9.54,0 13.59,5.78 14.84,9.16 1.06,2.99 1.35,5.49 1.35,14.55 V 91.21 H 300.47 V 60.95 c 0,-2.02 0,-3.76 -0.77,-5.3 -1.06,-2.12 -3.28,-4.14 -6.94,-4.14 -3.08,0 -5.88,1.45 -7.42,3.76 -0.87,1.25 -1.73,3.66 -1.73,7.42 v 28.53 h -14.36 v -40 z"
       id="path16"
       style="fill:#ffffff" />
    <path
       class="cls-1"
       d="m 0,114.28 h 10.75 c 5.01,0 9.2,0.34 12.1,3.81 1.83,2.22 2.12,4.72 2.12,6.51 0,4.05 -1.69,7.47 -4.43,9.25 -2.55,1.64 -6.07,1.64 -7.9,1.64 H 7.58 v 13.54 H 0 v -34.74 z m 7.37,15.66 h 2.99 c 2.41,0 6.89,0 6.89,-5.3 0,-4.72 -4,-4.72 -6.12,-4.72 H 7.37 Z"
       id="path18"
       style="fill:#ffffff" />
    <path
       class="cls-1"
       d="m 33.25,138.67 c 0,1.59 0,6.5 4.96,6.5 1.78,0 3.57,-0.67 4.24,-3.37 h 6.51 c -0.1,1.16 -0.34,3.23 -2.31,5.3 -1.78,1.88 -4.96,2.84 -8.53,2.84 -2.07,0 -6.02,-0.39 -8.58,-3.04 -2.22,-2.31 -3.13,-5.59 -3.13,-9.49 0,-3.9 0.96,-8.67 5.06,-11.52 1.88,-1.25 4.19,-2.02 6.84,-2.02 3.47,0 7.61,1.35 9.83,5.88 1.64,3.33 1.54,6.89 1.45,8.92 z m 9.06,-4.48 c 0,-1.11 -0.1,-5.45 -4.24,-5.45 -3.13,0 -4.43,2.6 -4.58,5.45 z"
       id="path20"
       style="fill:#ffffff" />
    <path
       class="cls-1"
       d="m 54.31,130.67 c 0,-1.16 -0.19,-4.67 -0.34,-6.07 h 6.7 l 0.14,4.67 c 0.92,-2.07 2.51,-5.01 8.29,-4.72 v 6.41 c -7.23,-0.67 -7.66,3.04 -7.66,6.07 v 12 h -7.13 z"
       id="path22"
       style="fill:#ffffff" />
    <path
       class="cls-1"
       d="m 78.02,141.99 c 0.1,1.54 1.06,3.33 4.05,3.33 2.55,0 3.76,-1.45 3.76,-2.89 0,-1.11 -0.58,-1.98 -3.37,-2.75 l -4.43,-1.2 c -1.98,-0.58 -6.17,-1.78 -6.17,-6.75 0,-4.97 4.34,-7.61 10.65,-7.61 5.01,0 9.06,2.31 9.25,7.18 h -6.5 c -0.19,-2.7 -2.36,-2.89 -3.47,-2.89 -1.93,0 -3.37,0.92 -3.37,2.41 0,1.64 1.2,1.98 3.32,2.55 l 4.39,1.21 c 4.43,1.2 6.51,3.47 6.51,6.79 0,4.19 -3.61,8.38 -11.18,8.38 -3.13,0 -6.12,-0.67 -8.34,-2.99 -1.59,-1.69 -1.73,-3.61 -1.78,-4.77 h 6.7 z"
       id="path24"
       style="fill:#ffffff" />
    <path
       class="cls-1"
       d="m 108.62,124.11 c 8.82,0 12.62,5.98 12.62,12.77 0,6.79 -3.95,13.01 -12.77,13.01 -6.94,0 -12.43,-4.29 -12.43,-12.82 0,-5.88 2.99,-12.96 12.58,-12.96 z m 0.1,20.82 c 3.13,0 5.25,-1.88 5.25,-8.34 0,-3.23 -0.63,-7.71 -5.35,-7.71 -5.2,0 -5.25,6.02 -5.25,8.24 0,5.45 1.83,7.81 5.35,7.81 z"
       id="path26"
       style="fill:#ffffff" />
    <path
       class="cls-1"
       d="m 126.69,129.03 c 0,-0.1 0,-2.75 -0.14,-4.43 h 6.84 l 0.19,3.66 c 0.67,-1.11 2.6,-4.24 7.9,-4.24 4.77,0 6.79,2.89 7.42,4.58 0.53,1.49 0.67,2.75 0.67,7.28 v 13.16 h -7.28 v -15.13 c 0,-1.01 0,-1.88 -0.39,-2.65 -0.53,-1.06 -1.64,-2.07 -3.47,-2.07 -1.54,0 -2.94,0.72 -3.71,1.88 -0.43,0.63 -0.87,1.83 -0.87,3.71 v 14.26 h -7.18 v -20 z"
       id="path28"
       style="fill:#ffffff" />
    <path
       class="cls-1"
       d="m 170.63,149.03 c -0.24,-1.49 -0.24,-2.6 -0.24,-3.33 -2.7,3.9 -5.93,3.9 -7.28,3.9 -3.52,0 -5.11,-1.01 -6.07,-1.93 -1.45,-1.45 -2.12,-3.42 -2.12,-5.35 0,-1.93 0.67,-5.49 5.16,-7.57 2.99,-1.35 7.28,-1.35 9.64,-1.35 0,-1.59 -0.05,-2.36 -0.34,-3.23 -0.63,-1.78 -2.51,-2.02 -3.18,-2.02 -1.01,0 -2.07,0.43 -2.7,1.35 -0.53,0.82 -0.53,1.59 -0.53,2.17 h -6.99 c 0.05,-1.3 0.19,-3.9 2.75,-5.73 2.22,-1.59 5.06,-1.98 7.37,-1.98 2.02,0 6.26,0.34 8.67,3.13 1.64,1.98 1.69,4.87 1.69,5.97 l 0.05,9.78 c 0,2.07 0.14,4.14 0.58,6.17 h -6.46 z m -8.77,-7.52 c 0,1.64 1.11,3.47 3.47,3.47 1.3,0 2.36,-0.63 3.04,-1.4 1.25,-1.54 1.35,-3.42 1.35,-6.02 -4.58,-0.39 -7.85,1.06 -7.85,3.95 z"
       id="path30"
       style="fill:#ffffff" />
    <path
       class="cls-1"
       d="m 182.83,114.19 h 7.13 v 34.84 h -7.13 z"
       id="path32"
       style="fill:#ffffff" />
    <path
       class="cls-1"
       d="m 229.42,125.56 c -0.14,-1.21 -0.58,-6.12 -5.64,-6.12 -5.54,0 -7.85,5.78 -7.85,12.96 0,2.07 0,11.95 7.28,11.95 3.13,0 6.12,-1.98 6.26,-6.6 h 7.85 c -0.14,2.07 -0.34,5.3 -3.13,8.19 -3.08,3.18 -6.99,3.9 -10.17,3.9 -12,0 -15.9,-8.87 -15.9,-17.49 0,-11.04 6.17,-18.36 15.95,-18.36 7.61,0 12.96,4.63 12.96,11.57 z"
       id="path34"
       style="fill:#ffffff" />
    <path
       class="cls-1"
       d="m 256.36,149.03 c -0.24,-1.49 -0.24,-2.6 -0.24,-3.33 -2.7,3.9 -5.93,3.9 -7.28,3.9 -3.52,0 -5.11,-1.01 -6.07,-1.93 -1.45,-1.45 -2.12,-3.42 -2.12,-5.35 0,-1.93 0.67,-5.49 5.16,-7.57 2.99,-1.35 7.28,-1.35 9.64,-1.35 0,-1.59 -0.05,-2.36 -0.34,-3.23 -0.63,-1.78 -2.51,-2.02 -3.18,-2.02 -1.01,0 -2.07,0.43 -2.7,1.35 -0.53,0.82 -0.53,1.59 -0.53,2.17 h -6.99 c 0.05,-1.3 0.19,-3.9 2.75,-5.73 2.22,-1.59 5.06,-1.98 7.37,-1.98 2.02,0 6.26,0.34 8.67,3.13 1.64,1.98 1.69,4.87 1.69,5.97 l 0.05,9.78 c 0,2.07 0.14,4.14 0.58,6.17 h -6.46 z m -8.77,-7.52 c 0,1.64 1.11,3.47 3.47,3.47 1.3,0 2.36,-0.63 3.04,-1.4 1.25,-1.54 1.35,-3.42 1.35,-6.02 -4.58,-0.39 -7.85,1.06 -7.85,3.95 z"
       id="path36"
       style="fill:#ffffff" />
    <path
       class="cls-1"
       d="m 268.55,130.67 c 0,-1.16 -0.19,-4.67 -0.34,-6.07 h 6.7 l 0.14,4.67 c 0.92,-2.07 2.51,-5.01 8.29,-4.72 v 6.41 c -7.23,-0.67 -7.66,3.04 -7.66,6.07 v 12 h -7.13 z"
       id="path38"
       style="fill:#ffffff" />
    <path
       class="cls-1"
       d="m 291.59,138.67 c 0,1.59 0,6.5 4.96,6.5 1.78,0 3.57,-0.67 4.24,-3.37 h 6.51 c -0.1,1.16 -0.34,3.23 -2.31,5.3 -1.78,1.88 -4.96,2.84 -8.53,2.84 -2.07,0 -6.02,-0.39 -8.58,-3.04 -2.22,-2.31 -3.13,-5.59 -3.13,-9.49 0,-3.9 0.96,-8.67 5.06,-11.52 1.88,-1.25 4.19,-2.02 6.84,-2.02 3.47,0 7.61,1.35 9.83,5.88 1.64,3.33 1.54,6.89 1.45,8.92 z m 9.06,-4.48 c 0,-1.11 -0.1,-5.45 -4.24,-5.45 -3.13,0 -4.43,2.6 -4.58,5.45 z"
       id="path40"
       style="fill:#ffffff" />
    <text
       class="cls-2"
       transform="translate(445.66,102)"
       id="text44"
       style="fill:#ffffff"><tspan
         x="0"
         y="0"
         id="tspan42"
         style="fill:#ffffff">®</tspan></text>
    <path
       class="cls-1"
       d="M 407.91,66.46 V 30.38 h 36.85 C 443.26,13.36 428.98,0 411.57,0 c -18.41,0 -33.33,14.92 -33.33,33.33 0,17.17 12.98,31.3 29.67,33.13 z"
       id="path46"
       style="fill:#ffffff" />
    <path
       class="cls-1"
       d="m 415.25,35.63 -0.03,36.09 -36.85,-0.03 c 1.48,17.02 15.75,30.39 33.16,30.41 18.41,0.02 33.35,-14.89 33.36,-33.3 0.02,-17.17 -12.95,-31.31 -29.64,-33.16 z"
       id="path48"
       style="fill:#ffffff" />
  </g>
</svg>
