<?xml version="1.0" encoding="UTF-8"?><svg id="Layer_2" xmlns="http://www.w3.org/2000/svg" viewBox="0 0 457.45 149.94"><defs><style>.cls-1,.cls-2{fill:#fff;}.cls-2{font-family:UniversLTStd-Bold, 'UniversLTStd Bold';font-size:28.35px;font-weight:700;}</style></defs><g id="Layer_1-2"><path class="cls-1" d="m15.47,68.94c0,3.28-.19,13.2,12.62,13.2,8.1,0,13.2-3.85,13.2-9.73,0-6.17-4.34-7.23-13.2-9.35C11.52,58.92,2.46,54,2.46,41.95s8.19-21.59,27.56-21.59c7.23,0,15.81,1.64,21.01,8.19,3.95,5.01,3.95,10.6,3.95,12.91h-14.36c-.19-2.41-.96-10.6-11.28-10.6-6.94,0-11.47,3.76-11.47,9.44,0,6.46,5.11,7.61,15.13,10.12,12.05,2.89,23.9,6.17,23.9,19.76,0,12.53-10.41,22.65-29.68,22.65C.53,92.84.34,75.68.24,68.94h15.23Z"/><path class="cls-1" d="m96.04,90.53c-4.63,1.25-8.77,1.54-11.08,1.54-14.36,0-14.36-9.06-14.36-13.11v-26.7h-9.35v-9.44h9.35v-9.54l14.17-5.2v14.75h11.56v9.44h-11.56v21.97c.1,4.43.1,7.23,6.46,7.23,2.12,0,3.08-.1,4.82-.29v9.35Z"/><path class="cls-1" d="m114.45,70.48c0,3.18,0,13.01,9.93,13.01,3.57,0,7.13-1.35,8.48-6.75h13.01c-.19,2.31-.67,6.46-4.63,10.6-3.57,3.76-9.93,5.69-17.06,5.69-4.14,0-12.05-.77-17.15-6.07-4.43-4.63-6.26-11.18-6.26-18.99s1.93-17.35,10.12-23.03c3.76-2.51,8.38-4.05,13.69-4.05,6.94,0,15.23,2.7,19.66,11.76,3.28,6.65,3.08,13.78,2.89,17.83h-32.67Zm18.12-8.96c0-2.22-.19-10.89-8.48-10.89-6.26,0-8.87,5.2-9.16,10.89h17.64Z"/><path class="cls-1" d="m169.96,42.53l.39,6.94c4.43-7.81,12.53-7.9,14.84-7.9,12.62,0,20.24,9.44,20.24,24.29,0,13.78-7.13,26.02-21.2,26.02-8.77,0-12.34-4.63-13.59-6.26v24.29h-14.55V42.53h13.88Zm21.01,23.9c0-5.78-1.45-15.71-9.83-15.71-4.63,0-11.18,3.47-11.18,16.58,0,2.89.1,15.23,10.6,15.23,6.75,0,10.41-6.46,10.41-16.09Z"/><path class="cls-1" d="m244.65,91.2c-.48-2.99-.48-5.2-.48-6.65-5.4,7.81-11.85,7.81-14.55,7.81-7.04,0-10.22-2.02-12.14-3.85-2.89-2.89-4.24-6.84-4.24-10.7s1.35-10.99,10.31-15.13c5.98-2.7,14.55-2.7,19.27-2.7,0-3.18-.1-4.72-.67-6.46-1.25-3.57-5.01-4.05-6.36-4.05-2.02,0-4.14.87-5.4,2.7-1.06,1.64-1.06,3.18-1.06,4.34h-13.97c.1-2.6.39-7.81,5.49-11.47,4.43-3.18,10.12-3.95,14.75-3.95,4.05,0,12.53.67,17.35,6.26,3.28,3.95,3.37,9.73,3.37,11.95l.1,19.56c0,4.14.29,8.29,1.16,12.34h-12.91Zm-17.54-15.03c0,3.28,2.22,6.94,6.94,6.94,2.6,0,4.72-1.25,6.07-2.79,2.51-3.08,2.7-6.84,2.7-12.05-9.16-.77-15.71,2.12-15.71,7.9Z"/><path class="cls-1" d="m269.23,51.21c0-.19,0-5.49-.29-8.87h13.69l.39,7.33c1.35-2.22,5.2-8.48,15.81-8.48,9.54,0,13.59,5.78,14.84,9.16,1.06,2.99,1.35,5.49,1.35,14.55v26.31h-14.55v-30.26c0-2.02,0-3.76-.77-5.3-1.06-2.12-3.28-4.14-6.94-4.14-3.08,0-5.88,1.45-7.42,3.76-.87,1.25-1.73,3.66-1.73,7.42v28.53h-14.36v-40Z"/><path class="cls-1" d="m0,114.28h10.75c5.01,0,9.2.34,12.1,3.81,1.83,2.22,2.12,4.72,2.12,6.51,0,4.05-1.69,7.47-4.43,9.25-2.55,1.64-6.07,1.64-7.9,1.64h-5.06v13.54H0v-34.74Zm7.37,15.66h2.99c2.41,0,6.89,0,6.89-5.3,0-4.72-4-4.72-6.12-4.72h-3.76v10.02Z"/><path class="cls-1" d="m33.25,138.67c0,1.59,0,6.5,4.96,6.5,1.78,0,3.57-.67,4.24-3.37h6.51c-.1,1.16-.34,3.23-2.31,5.3-1.78,1.88-4.96,2.84-8.53,2.84-2.07,0-6.02-.39-8.58-3.04-2.22-2.31-3.13-5.59-3.13-9.49s.96-8.67,5.06-11.52c1.88-1.25,4.19-2.02,6.84-2.02,3.47,0,7.61,1.35,9.83,5.88,1.64,3.33,1.54,6.89,1.45,8.92h-16.34Zm9.06-4.48c0-1.11-.1-5.45-4.24-5.45-3.13,0-4.43,2.6-4.58,5.45h8.82Z"/><path class="cls-1" d="m54.31,130.67c0-1.16-.19-4.67-.34-6.07h6.7l.14,4.67c.92-2.07,2.51-5.01,8.29-4.72v6.41c-7.23-.67-7.66,3.04-7.66,6.07v12h-7.13v-18.36Z"/><path class="cls-1" d="m78.02,141.99c.1,1.54,1.06,3.33,4.05,3.33,2.55,0,3.76-1.45,3.76-2.89,0-1.11-.58-1.98-3.37-2.75l-4.43-1.2c-1.98-.58-6.17-1.78-6.17-6.75s4.34-7.61,10.65-7.61c5.01,0,9.06,2.31,9.25,7.18h-6.5c-.19-2.7-2.36-2.89-3.47-2.89-1.93,0-3.37.92-3.37,2.41,0,1.64,1.2,1.98,3.32,2.55l4.39,1.21c4.43,1.2,6.51,3.47,6.51,6.79,0,4.19-3.61,8.38-11.18,8.38-3.13,0-6.12-.67-8.34-2.99-1.59-1.69-1.73-3.61-1.78-4.77h6.7Z"/><path class="cls-1" d="m108.62,124.11c8.82,0,12.62,5.98,12.62,12.77s-3.95,13.01-12.77,13.01c-6.94,0-12.43-4.29-12.43-12.82,0-5.88,2.99-12.96,12.58-12.96Zm.1,20.82c3.13,0,5.25-1.88,5.25-8.34,0-3.23-.63-7.71-5.35-7.71-5.2,0-5.25,6.02-5.25,8.24,0,5.45,1.83,7.81,5.35,7.81Z"/><path class="cls-1" d="m126.69,129.03c0-.1,0-2.75-.14-4.43h6.84l.19,3.66c.67-1.11,2.6-4.24,7.9-4.24,4.77,0,6.79,2.89,7.42,4.58.53,1.49.67,2.75.67,7.28v13.16h-7.28v-15.13c0-1.01,0-1.88-.39-2.65-.53-1.06-1.64-2.07-3.47-2.07-1.54,0-2.94.72-3.71,1.88-.43.63-.87,1.83-.87,3.71v14.26h-7.18v-20Z"/><path class="cls-1" d="m170.63,149.03c-.24-1.49-.24-2.6-.24-3.33-2.7,3.9-5.93,3.9-7.28,3.9-3.52,0-5.11-1.01-6.07-1.93-1.45-1.45-2.12-3.42-2.12-5.35s.67-5.49,5.16-7.57c2.99-1.35,7.28-1.35,9.64-1.35,0-1.59-.05-2.36-.34-3.23-.63-1.78-2.51-2.02-3.18-2.02-1.01,0-2.07.43-2.7,1.35-.53.82-.53,1.59-.53,2.17h-6.99c.05-1.3.19-3.9,2.75-5.73,2.22-1.59,5.06-1.98,7.37-1.98,2.02,0,6.26.34,8.67,3.13,1.64,1.98,1.69,4.87,1.69,5.97l.05,9.78c0,2.07.14,4.14.58,6.17h-6.46Zm-8.77-7.52c0,1.64,1.11,3.47,3.47,3.47,1.3,0,2.36-.63,3.04-1.4,1.25-1.54,1.35-3.42,1.35-6.02-4.58-.39-7.85,1.06-7.85,3.95Z"/><path class="cls-1" d="m182.83,114.19h7.13v34.84h-7.13v-34.84Z"/><path class="cls-1" d="m229.42,125.56c-.14-1.21-.58-6.12-5.64-6.12-5.54,0-7.85,5.78-7.85,12.96,0,2.07,0,11.95,7.28,11.95,3.13,0,6.12-1.98,6.26-6.6h7.85c-.14,2.07-.34,5.3-3.13,8.19-3.08,3.18-6.99,3.9-10.17,3.9-12,0-15.9-8.87-15.9-17.49,0-11.04,6.17-18.36,15.95-18.36,7.61,0,12.96,4.63,12.96,11.57h-7.61Z"/><path class="cls-1" d="m256.36,149.03c-.24-1.49-.24-2.6-.24-3.33-2.7,3.9-5.93,3.9-7.28,3.9-3.52,0-5.11-1.01-6.07-1.93-1.45-1.45-2.12-3.42-2.12-5.35s.67-5.49,5.16-7.57c2.99-1.35,7.28-1.35,9.64-1.35,0-1.59-.05-2.36-.34-3.23-.63-1.78-2.51-2.02-3.18-2.02-1.01,0-2.07.43-2.7,1.35-.53.82-.53,1.59-.53,2.17h-6.99c.05-1.3.19-3.9,2.75-5.73,2.22-1.59,5.06-1.98,7.37-1.98,2.02,0,6.26.34,8.67,3.13,1.64,1.98,1.69,4.87,1.69,5.97l.05,9.78c0,2.07.14,4.14.58,6.17h-6.46Zm-8.77-7.52c0,1.64,1.11,3.47,3.47,3.47,1.3,0,2.36-.63,3.04-1.4,1.25-1.54,1.35-3.42,1.35-6.02-4.58-.39-7.85,1.06-7.85,3.95Z"/><path class="cls-1" d="m268.55,130.67c0-1.16-.19-4.67-.34-6.07h6.7l.14,4.67c.92-2.07,2.51-5.01,8.29-4.72v6.41c-7.23-.67-7.66,3.04-7.66,6.07v12h-7.13v-18.36Z"/><path class="cls-1" d="m291.59,138.67c0,1.59,0,6.5,4.96,6.5,1.78,0,3.57-.67,4.24-3.37h6.51c-.1,1.16-.34,3.23-2.31,5.3-1.78,1.88-4.96,2.84-8.53,2.84-2.07,0-6.02-.39-8.58-3.04-2.22-2.31-3.13-5.59-3.13-9.49s.96-8.67,5.06-11.52c1.88-1.25,4.19-2.02,6.84-2.02,3.47,0,7.61,1.35,9.83,5.88,1.64,3.33,1.54,6.89,1.45,8.92h-16.34Zm9.06-4.48c0-1.11-.1-5.45-4.24-5.45-3.13,0-4.43,2.6-4.58,5.45h8.82Z"/><text class="cls-2" transform="translate(445.66 102)"><tspan x="0" y="0">®</tspan></text><path class="cls-1" d="m407.91,66.46V30.38h36.85c-1.5-17.02-15.78-30.38-33.19-30.38-18.41,0-33.33,14.92-33.33,33.33,0,17.17,12.98,31.3,29.67,33.13Z"/><path class="cls-1" d="m415.25,35.63l-.03,36.09-36.85-.03c1.48,17.02,15.75,30.39,33.16,30.41,18.41.02,33.35-14.89,33.36-33.3.02-17.17-12.95-31.31-29.64-33.16Z"/></g></svg>